<mxfile host="Electron" agent="Mozilla/5.0 (Macintosh; Intel Mac OS X 10_15_7) AppleWebKit/537.36 (KHTML, like Gecko) draw.io/24.7.5 Chrome/126.0.6478.183 Electron/31.3.0 Safari/537.36" version="24.7.5">
  <diagram name="Страница — 1" id="NpcusJE1uTSJz9AERHdL">
    <mxGraphModel dx="1468" dy="932" grid="1" gridSize="10" guides="1" tooltips="1" connect="1" arrows="1" fold="1" page="1" pageScale="1" pageWidth="827" pageHeight="1169" math="0" shadow="0">
      <root>
        <mxCell id="0" />
        <mxCell id="1" parent="0" />
        <mxCell id="-a8jQ-xbufBVmyGvMNfR-16" style="edgeStyle=orthogonalEdgeStyle;rounded=0;orthogonalLoop=1;jettySize=auto;html=1;exitX=0.5;exitY=1;exitDx=0;exitDy=0;entryX=0.5;entryY=0;entryDx=0;entryDy=0;" edge="1" parent="1" source="-a8jQ-xbufBVmyGvMNfR-1" target="-a8jQ-xbufBVmyGvMNfR-4">
          <mxGeometry relative="1" as="geometry" />
        </mxCell>
        <mxCell id="-a8jQ-xbufBVmyGvMNfR-1" value="/start" style="rounded=0;whiteSpace=wrap;html=1;" vertex="1" parent="1">
          <mxGeometry x="354" width="120" height="60" as="geometry" />
        </mxCell>
        <mxCell id="-a8jQ-xbufBVmyGvMNfR-8" value="False" style="edgeStyle=orthogonalEdgeStyle;rounded=0;orthogonalLoop=1;jettySize=auto;html=1;entryX=0;entryY=0.5;entryDx=0;entryDy=0;" edge="1" parent="1" source="-a8jQ-xbufBVmyGvMNfR-4" target="-a8jQ-xbufBVmyGvMNfR-53">
          <mxGeometry relative="1" as="geometry">
            <mxPoint x="560" y="210" as="targetPoint" />
          </mxGeometry>
        </mxCell>
        <mxCell id="-a8jQ-xbufBVmyGvMNfR-19" value="" style="edgeStyle=orthogonalEdgeStyle;rounded=0;orthogonalLoop=1;jettySize=auto;html=1;" edge="1" parent="1" source="-a8jQ-xbufBVmyGvMNfR-4" target="-a8jQ-xbufBVmyGvMNfR-18">
          <mxGeometry relative="1" as="geometry" />
        </mxCell>
        <mxCell id="-a8jQ-xbufBVmyGvMNfR-4" value="if registered" style="rhombus;whiteSpace=wrap;html=1;" vertex="1" parent="1">
          <mxGeometry x="374" y="170" width="80" height="80" as="geometry" />
        </mxCell>
        <mxCell id="-a8jQ-xbufBVmyGvMNfR-12" value="" style="edgeStyle=orthogonalEdgeStyle;rounded=0;orthogonalLoop=1;jettySize=auto;html=1;" edge="1" parent="1" source="-a8jQ-xbufBVmyGvMNfR-7" target="-a8jQ-xbufBVmyGvMNfR-11">
          <mxGeometry relative="1" as="geometry" />
        </mxCell>
        <mxCell id="-a8jQ-xbufBVmyGvMNfR-7" value="Enter login" style="whiteSpace=wrap;html=1;" vertex="1" parent="1">
          <mxGeometry x="600" y="180" width="120" height="60" as="geometry" />
        </mxCell>
        <mxCell id="-a8jQ-xbufBVmyGvMNfR-14" value="True" style="edgeStyle=orthogonalEdgeStyle;rounded=0;orthogonalLoop=1;jettySize=auto;html=1;" edge="1" parent="1" source="-a8jQ-xbufBVmyGvMNfR-11" target="-a8jQ-xbufBVmyGvMNfR-13">
          <mxGeometry relative="1" as="geometry" />
        </mxCell>
        <mxCell id="-a8jQ-xbufBVmyGvMNfR-15" value="False" style="edgeStyle=orthogonalEdgeStyle;rounded=0;orthogonalLoop=1;jettySize=auto;html=1;exitX=1;exitY=0.5;exitDx=0;exitDy=0;entryX=1;entryY=0.5;entryDx=0;entryDy=0;" edge="1" parent="1" source="-a8jQ-xbufBVmyGvMNfR-11" target="-a8jQ-xbufBVmyGvMNfR-7">
          <mxGeometry relative="1" as="geometry">
            <Array as="points">
              <mxPoint x="770" y="350" />
              <mxPoint x="770" y="210" />
            </Array>
          </mxGeometry>
        </mxCell>
        <mxCell id="-a8jQ-xbufBVmyGvMNfR-11" value="If login is unique" style="rhombus;whiteSpace=wrap;html=1;" vertex="1" parent="1">
          <mxGeometry x="620" y="310" width="80" height="80" as="geometry" />
        </mxCell>
        <mxCell id="-a8jQ-xbufBVmyGvMNfR-20" style="edgeStyle=orthogonalEdgeStyle;rounded=0;orthogonalLoop=1;jettySize=auto;html=1;exitX=0;exitY=0.5;exitDx=0;exitDy=0;entryX=1;entryY=0.5;entryDx=0;entryDy=0;" edge="1" parent="1" source="-a8jQ-xbufBVmyGvMNfR-13" target="-a8jQ-xbufBVmyGvMNfR-18">
          <mxGeometry relative="1" as="geometry" />
        </mxCell>
        <mxCell id="-a8jQ-xbufBVmyGvMNfR-22" value="Back" style="edgeStyle=orthogonalEdgeStyle;rounded=0;orthogonalLoop=1;jettySize=auto;html=1;entryX=1;entryY=0.5;entryDx=0;entryDy=0;exitX=1;exitY=0.5;exitDx=0;exitDy=0;" edge="1" parent="1" source="-a8jQ-xbufBVmyGvMNfR-13" target="-a8jQ-xbufBVmyGvMNfR-7">
          <mxGeometry relative="1" as="geometry">
            <mxPoint x="660" y="420" as="sourcePoint" />
            <Array as="points">
              <mxPoint x="800" y="510" />
              <mxPoint x="800" y="210" />
            </Array>
          </mxGeometry>
        </mxCell>
        <mxCell id="-a8jQ-xbufBVmyGvMNfR-13" value="Enter Name" style="whiteSpace=wrap;html=1;" vertex="1" parent="1">
          <mxGeometry x="600" y="480" width="120" height="60" as="geometry" />
        </mxCell>
        <mxCell id="-a8jQ-xbufBVmyGvMNfR-27" style="edgeStyle=orthogonalEdgeStyle;rounded=1;orthogonalLoop=1;jettySize=auto;html=1;exitX=0;exitY=1;exitDx=0;exitDy=0;curved=0;" edge="1" parent="1" source="-a8jQ-xbufBVmyGvMNfR-18" target="-a8jQ-xbufBVmyGvMNfR-24">
          <mxGeometry relative="1" as="geometry" />
        </mxCell>
        <mxCell id="-a8jQ-xbufBVmyGvMNfR-29" value="" style="edgeStyle=orthogonalEdgeStyle;rounded=0;orthogonalLoop=1;jettySize=auto;html=1;" edge="1" parent="1" source="-a8jQ-xbufBVmyGvMNfR-18" target="-a8jQ-xbufBVmyGvMNfR-28">
          <mxGeometry relative="1" as="geometry" />
        </mxCell>
        <mxCell id="-a8jQ-xbufBVmyGvMNfR-30" style="edgeStyle=orthogonalEdgeStyle;rounded=1;orthogonalLoop=1;jettySize=auto;html=1;exitX=1;exitY=1;exitDx=0;exitDy=0;entryX=0.5;entryY=0;entryDx=0;entryDy=0;curved=0;" edge="1" parent="1" source="-a8jQ-xbufBVmyGvMNfR-18" target="-a8jQ-xbufBVmyGvMNfR-31">
          <mxGeometry relative="1" as="geometry">
            <mxPoint x="700" y="660" as="targetPoint" />
          </mxGeometry>
        </mxCell>
        <mxCell id="-a8jQ-xbufBVmyGvMNfR-18" value="Main Menu" style="whiteSpace=wrap;html=1;" vertex="1" parent="1">
          <mxGeometry x="354" y="480" width="120" height="60" as="geometry" />
        </mxCell>
        <mxCell id="-a8jQ-xbufBVmyGvMNfR-33" value="" style="edgeStyle=orthogonalEdgeStyle;rounded=0;orthogonalLoop=1;jettySize=auto;html=1;" edge="1" parent="1" source="-a8jQ-xbufBVmyGvMNfR-24" target="-a8jQ-xbufBVmyGvMNfR-32">
          <mxGeometry relative="1" as="geometry" />
        </mxCell>
        <mxCell id="-a8jQ-xbufBVmyGvMNfR-24" value="Create Task" style="whiteSpace=wrap;html=1;" vertex="1" parent="1">
          <mxGeometry y="670" width="120" height="60" as="geometry" />
        </mxCell>
        <mxCell id="-a8jQ-xbufBVmyGvMNfR-52" value="" style="edgeStyle=orthogonalEdgeStyle;rounded=0;orthogonalLoop=1;jettySize=auto;html=1;" edge="1" parent="1" source="-a8jQ-xbufBVmyGvMNfR-28" target="-a8jQ-xbufBVmyGvMNfR-51">
          <mxGeometry relative="1" as="geometry" />
        </mxCell>
        <mxCell id="-a8jQ-xbufBVmyGvMNfR-28" value="Show Tasks&lt;div&gt;&lt;br&gt;&lt;/div&gt;" style="whiteSpace=wrap;html=1;" vertex="1" parent="1">
          <mxGeometry x="354" y="670" width="120" height="60" as="geometry" />
        </mxCell>
        <mxCell id="-a8jQ-xbufBVmyGvMNfR-50" value="" style="edgeStyle=orthogonalEdgeStyle;rounded=0;orthogonalLoop=1;jettySize=auto;html=1;" edge="1" parent="1" source="-a8jQ-xbufBVmyGvMNfR-31" target="-a8jQ-xbufBVmyGvMNfR-49">
          <mxGeometry relative="1" as="geometry" />
        </mxCell>
        <mxCell id="-a8jQ-xbufBVmyGvMNfR-31" value="Settings&lt;div&gt;&lt;br&gt;&lt;/div&gt;" style="rounded=0;whiteSpace=wrap;html=1;" vertex="1" parent="1">
          <mxGeometry x="707" y="670" width="120" height="60" as="geometry" />
        </mxCell>
        <mxCell id="-a8jQ-xbufBVmyGvMNfR-36" value="Back" style="edgeStyle=orthogonalEdgeStyle;rounded=0;orthogonalLoop=1;jettySize=auto;html=1;exitX=1;exitY=0.5;exitDx=0;exitDy=0;entryX=1;entryY=0.5;entryDx=0;entryDy=0;" edge="1" parent="1" source="-a8jQ-xbufBVmyGvMNfR-32" target="-a8jQ-xbufBVmyGvMNfR-24">
          <mxGeometry relative="1" as="geometry" />
        </mxCell>
        <mxCell id="-a8jQ-xbufBVmyGvMNfR-41" value="" style="edgeStyle=orthogonalEdgeStyle;rounded=0;orthogonalLoop=1;jettySize=auto;html=1;" edge="1" parent="1" source="-a8jQ-xbufBVmyGvMNfR-32" target="-a8jQ-xbufBVmyGvMNfR-40">
          <mxGeometry relative="1" as="geometry" />
        </mxCell>
        <mxCell id="-a8jQ-xbufBVmyGvMNfR-32" value="Enter Title" style="whiteSpace=wrap;html=1;" vertex="1" parent="1">
          <mxGeometry y="810" width="120" height="60" as="geometry" />
        </mxCell>
        <mxCell id="-a8jQ-xbufBVmyGvMNfR-39" style="edgeStyle=orthogonalEdgeStyle;rounded=0;orthogonalLoop=1;jettySize=auto;html=1;exitX=1;exitY=0.5;exitDx=0;exitDy=0;entryX=0;entryY=0.5;entryDx=0;entryDy=0;" edge="1" parent="1" source="-a8jQ-xbufBVmyGvMNfR-38" target="-a8jQ-xbufBVmyGvMNfR-4">
          <mxGeometry relative="1" as="geometry" />
        </mxCell>
        <mxCell id="-a8jQ-xbufBVmyGvMNfR-38" value="/m&lt;span style=&quot;background-color: initial;&quot;&gt;ain&lt;/span&gt;" style="rounded=1;whiteSpace=wrap;html=1;" vertex="1" parent="1">
          <mxGeometry x="90" y="180" width="80" height="60" as="geometry" />
        </mxCell>
        <mxCell id="-a8jQ-xbufBVmyGvMNfR-43" value="False" style="edgeStyle=orthogonalEdgeStyle;rounded=0;orthogonalLoop=1;jettySize=auto;html=1;exitX=1;exitY=0.5;exitDx=0;exitDy=0;entryX=1;entryY=1;entryDx=0;entryDy=0;" edge="1" parent="1" source="-a8jQ-xbufBVmyGvMNfR-40" target="-a8jQ-xbufBVmyGvMNfR-32">
          <mxGeometry relative="1" as="geometry">
            <Array as="points">
              <mxPoint x="160" y="980" />
              <mxPoint x="160" y="870" />
            </Array>
          </mxGeometry>
        </mxCell>
        <mxCell id="-a8jQ-xbufBVmyGvMNfR-45" value="" style="edgeStyle=orthogonalEdgeStyle;rounded=0;orthogonalLoop=1;jettySize=auto;html=1;" edge="1" parent="1" source="-a8jQ-xbufBVmyGvMNfR-40" target="-a8jQ-xbufBVmyGvMNfR-44">
          <mxGeometry relative="1" as="geometry" />
        </mxCell>
        <mxCell id="-a8jQ-xbufBVmyGvMNfR-40" value="If unique" style="rhombus;whiteSpace=wrap;html=1;" vertex="1" parent="1">
          <mxGeometry x="20" y="940" width="80" height="80" as="geometry" />
        </mxCell>
        <mxCell id="-a8jQ-xbufBVmyGvMNfR-46" style="edgeStyle=orthogonalEdgeStyle;rounded=0;orthogonalLoop=1;jettySize=auto;html=1;exitX=1.014;exitY=0.385;exitDx=0;exitDy=0;entryX=0;entryY=0.5;entryDx=0;entryDy=0;exitPerimeter=0;" edge="1" parent="1" source="-a8jQ-xbufBVmyGvMNfR-47" target="-a8jQ-xbufBVmyGvMNfR-18">
          <mxGeometry relative="1" as="geometry" />
        </mxCell>
        <mxCell id="-a8jQ-xbufBVmyGvMNfR-48" value="" style="edgeStyle=orthogonalEdgeStyle;rounded=0;orthogonalLoop=1;jettySize=auto;html=1;" edge="1" parent="1" source="-a8jQ-xbufBVmyGvMNfR-44" target="-a8jQ-xbufBVmyGvMNfR-47">
          <mxGeometry relative="1" as="geometry" />
        </mxCell>
        <mxCell id="-a8jQ-xbufBVmyGvMNfR-44" value="Enter message" style="whiteSpace=wrap;html=1;" vertex="1" parent="1">
          <mxGeometry y="1110" width="120" height="60" as="geometry" />
        </mxCell>
        <mxCell id="-a8jQ-xbufBVmyGvMNfR-47" value="load task to db" style="whiteSpace=wrap;html=1;" vertex="1" parent="1">
          <mxGeometry y="1250" width="120" height="60" as="geometry" />
        </mxCell>
        <mxCell id="-a8jQ-xbufBVmyGvMNfR-49" value="change name" style="whiteSpace=wrap;html=1;rounded=0;" vertex="1" parent="1">
          <mxGeometry x="707" y="780" width="120" height="60" as="geometry" />
        </mxCell>
        <mxCell id="-a8jQ-xbufBVmyGvMNfR-56" value="" style="edgeStyle=orthogonalEdgeStyle;rounded=0;orthogonalLoop=1;jettySize=auto;html=1;" edge="1" parent="1" source="-a8jQ-xbufBVmyGvMNfR-51" target="-a8jQ-xbufBVmyGvMNfR-55">
          <mxGeometry relative="1" as="geometry" />
        </mxCell>
        <mxCell id="-a8jQ-xbufBVmyGvMNfR-58" value="" style="edgeStyle=orthogonalEdgeStyle;rounded=0;orthogonalLoop=1;jettySize=auto;html=1;" edge="1" parent="1" source="-a8jQ-xbufBVmyGvMNfR-51" target="-a8jQ-xbufBVmyGvMNfR-57">
          <mxGeometry relative="1" as="geometry" />
        </mxCell>
        <mxCell id="-a8jQ-xbufBVmyGvMNfR-60" value="" style="edgeStyle=orthogonalEdgeStyle;rounded=0;orthogonalLoop=1;jettySize=auto;html=1;" edge="1" parent="1" source="-a8jQ-xbufBVmyGvMNfR-51" target="-a8jQ-xbufBVmyGvMNfR-59">
          <mxGeometry relative="1" as="geometry" />
        </mxCell>
        <mxCell id="-a8jQ-xbufBVmyGvMNfR-62" value="" style="edgeStyle=orthogonalEdgeStyle;rounded=0;orthogonalLoop=1;jettySize=auto;html=1;" edge="1" parent="1" source="-a8jQ-xbufBVmyGvMNfR-51" target="-a8jQ-xbufBVmyGvMNfR-61">
          <mxGeometry relative="1" as="geometry" />
        </mxCell>
        <mxCell id="-a8jQ-xbufBVmyGvMNfR-51" value="Show task Options" style="whiteSpace=wrap;html=1;" vertex="1" parent="1">
          <mxGeometry x="354" y="810" width="120" height="60" as="geometry" />
        </mxCell>
        <mxCell id="-a8jQ-xbufBVmyGvMNfR-54" style="edgeStyle=orthogonalEdgeStyle;rounded=0;orthogonalLoop=1;jettySize=auto;html=1;entryX=0.5;entryY=0;entryDx=0;entryDy=0;" edge="1" parent="1" source="-a8jQ-xbufBVmyGvMNfR-53" target="-a8jQ-xbufBVmyGvMNfR-7">
          <mxGeometry relative="1" as="geometry" />
        </mxCell>
        <mxCell id="-a8jQ-xbufBVmyGvMNfR-53" value="/register" style="rounded=0;whiteSpace=wrap;html=1;" vertex="1" parent="1">
          <mxGeometry x="600" y="60" width="120" height="60" as="geometry" />
        </mxCell>
        <mxCell id="-a8jQ-xbufBVmyGvMNfR-68" value="" style="group" vertex="1" connectable="0" parent="1">
          <mxGeometry x="240" y="940" width="460" height="400" as="geometry" />
        </mxCell>
        <mxCell id="-a8jQ-xbufBVmyGvMNfR-55" value="Show task&lt;div&gt;&lt;br&gt;&lt;/div&gt;" style="whiteSpace=wrap;html=1;" vertex="1" parent="-a8jQ-xbufBVmyGvMNfR-68">
          <mxGeometry width="120" height="63.1578947368421" as="geometry" />
        </mxCell>
        <mxCell id="-a8jQ-xbufBVmyGvMNfR-57" value="delete task" style="whiteSpace=wrap;html=1;" vertex="1" parent="-a8jQ-xbufBVmyGvMNfR-68">
          <mxGeometry x="340" width="120" height="63.1578947368421" as="geometry" />
        </mxCell>
        <mxCell id="-a8jQ-xbufBVmyGvMNfR-59" value="Edit task" style="whiteSpace=wrap;html=1;" vertex="1" parent="-a8jQ-xbufBVmyGvMNfR-68">
          <mxGeometry x="80" y="73.6842105263158" width="120" height="63.1578947368421" as="geometry" />
        </mxCell>
        <mxCell id="-a8jQ-xbufBVmyGvMNfR-61" value="Done task" style="whiteSpace=wrap;html=1;" vertex="1" parent="-a8jQ-xbufBVmyGvMNfR-68">
          <mxGeometry x="220" y="73.6842105263158" width="120" height="63.1578947368421" as="geometry" />
        </mxCell>
        <mxCell id="-a8jQ-xbufBVmyGvMNfR-63" value="edit title&lt;div&gt;&lt;br&gt;&lt;/div&gt;" style="whiteSpace=wrap;html=1;" vertex="1" parent="-a8jQ-xbufBVmyGvMNfR-68">
          <mxGeometry x="80" y="221.05263157894737" width="120" height="63.1578947368421" as="geometry" />
        </mxCell>
        <mxCell id="-a8jQ-xbufBVmyGvMNfR-66" value="edit message&lt;div&gt;&lt;br&gt;&lt;/div&gt;" style="whiteSpace=wrap;html=1;" vertex="1" parent="-a8jQ-xbufBVmyGvMNfR-68">
          <mxGeometry x="80" y="336.84210526315786" width="120" height="63.1578947368421" as="geometry" />
        </mxCell>
        <mxCell id="-a8jQ-xbufBVmyGvMNfR-64" value="" style="edgeStyle=orthogonalEdgeStyle;rounded=0;orthogonalLoop=1;jettySize=auto;html=1;" edge="1" parent="-a8jQ-xbufBVmyGvMNfR-68" source="-a8jQ-xbufBVmyGvMNfR-59" target="-a8jQ-xbufBVmyGvMNfR-63">
          <mxGeometry relative="1" as="geometry" />
        </mxCell>
        <mxCell id="-a8jQ-xbufBVmyGvMNfR-67" style="edgeStyle=orthogonalEdgeStyle;rounded=0;orthogonalLoop=1;jettySize=auto;html=1;exitX=0.5;exitY=1;exitDx=0;exitDy=0;entryX=0.5;entryY=0;entryDx=0;entryDy=0;" edge="1" parent="-a8jQ-xbufBVmyGvMNfR-68" source="-a8jQ-xbufBVmyGvMNfR-63" target="-a8jQ-xbufBVmyGvMNfR-66">
          <mxGeometry relative="1" as="geometry" />
        </mxCell>
      </root>
    </mxGraphModel>
  </diagram>
</mxfile>
